<svg width="407" height="96" viewBox="0 0 407 96" fill="none" xmlns="http://www.w3.org/2000/svg">
<path d="M15.168 72V34.048H0.64V25.92H38.4V34.048H23.872V72H15.168ZM43.5425 72V25.92H73.6225V34.048H52.2465V43.904H69.7825V52.032H52.2465V63.872H73.6225V72H43.5425ZM99.4435 72.96C94.8355 72.96 90.8568 71.9573 87.5075 69.952C84.1795 67.9467 81.6088 65.1413 79.7955 61.536C78.0035 57.9307 77.1075 53.7387 77.1075 48.96C77.1075 44.1813 78.0035 39.9893 79.7955 36.384C81.6088 32.7787 84.1795 29.9733 87.5075 27.968C90.8568 25.9627 94.8355 24.96 99.4435 24.96C104.734 24.96 109.172 26.272 112.756 28.896C116.361 31.52 118.9 35.072 120.372 39.552L111.604 41.984C110.75 39.1893 109.31 37.024 107.284 35.488C105.257 33.9307 102.644 33.152 99.4435 33.152C96.5208 33.152 94.0782 33.8027 92.1155 35.104C90.1742 36.4053 88.7128 38.24 87.7315 40.608C86.7502 42.976 86.2595 45.76 86.2595 48.96C86.2595 52.16 86.7502 54.944 87.7315 57.312C88.7128 59.68 90.1742 61.5147 92.1155 62.816C94.0782 64.1173 96.5208 64.768 99.4435 64.768C102.644 64.768 105.257 63.9893 107.284 62.432C109.31 60.8747 110.75 58.7093 111.604 55.936L120.372 58.368C118.9 62.848 116.361 66.4 112.756 69.024C109.172 71.648 104.734 72.96 99.4435 72.96ZM127.418 72V25.92H136.122V44.864H156.729V25.92H165.434V72H156.729V52.992H136.122V72H127.418ZM185.106 72V34.048H170.578V25.92H208.338V34.048H193.81V72H185.106ZM326.855 72V25.92H335.687L355.719 56.64V25.92H364.551V72H355.719L335.687 41.28V72H326.855ZM373.48 72V25.92H403.56V34.048H382.184V43.904H399.72V52.032H382.184V63.872H403.56V72H373.48Z" fill="black"/>
<circle cx="263" cy="48" r="48" fill="black"/>
<line x1="239.204" y1="42.5696" x2="239.204" y2="55.9348" stroke="#CB8317" stroke-width="5" stroke-linecap="round"/>
<line x1="230.857" y1="40.0652" x2="230.857" y2="58.4391" stroke="#CB8317" stroke-width="5" stroke-linecap="round"/>
<line x1="296.804" y1="43.4044" x2="296.804" y2="55.1" stroke="#CB8317" stroke-width="5" stroke-linecap="round"/>
<line x1="247.552" y1="30.0478" x2="247.552" y2="67.6217" stroke="#CB8317" stroke-width="5" stroke-linecap="round"/>
<path d="M288.461 30.0522L288.461 65.9478" stroke="#CB8317" stroke-width="5" stroke-linecap="round"/>
<line x1="280.943" y1="38.3957" x2="280.943" y2="57.6044" stroke="#CB8317" stroke-width="5" stroke-linecap="round"/>
<line x1="272.596" y1="33.387" x2="272.596" y2="63.4478" stroke="#CB8317" stroke-width="5" stroke-linecap="round"/>
<line x1="264.248" y1="26.7087" x2="264.248" y2="72.6304" stroke="#CB8317" stroke-width="5" stroke-linecap="round"/>
<line x1="255.9" y1="21.7" x2="255.9" y2="76.8044" stroke="#CB8317" stroke-width="5" stroke-linecap="round"/>
</svg>
