<?xml version="1.0" encoding="utf-8"?>
<!-- Generator: Adobe Illustrator 24.0.1, SVG Export Plug-In . SVG Version: 6.00 Build 0)  -->
<svg version="1.1" id="Layer_1" xmlns="http://www.w3.org/2000/svg" xmlns:xlink="http://www.w3.org/1999/xlink" x="0px" y="0px"
	 viewBox="0 0 216 216" style="enable-background:new 0 0 216 216;" xml:space="preserve">
<style type="text/css">
	.st0{fill:#C1DEF6;}
	.st1{fill:#FFFFFF;}
	.st2{fill:#00A3E2;}
</style>
<g>
	<path class="st0" d="M173.5,108c0-29.2-23.6-52.8-52.8-52.8S67.9,78.8,67.9,108c0,29.2,23.6,52.8,52.8,52.8S173.5,137.2,173.5,108"
		/>
	<g>
		<g>
			<path class="st1" d="M100.4,107.4L73.9,80.9c-1.5-1.5-4.1-1.5-5.5,0c-0.7,0.7-1.1,1.7-1.1,2.8c0,1,0.4,2,1.1,2.8l19.8,19.8H50
				c-2.2,0-3.9,1.8-3.9,3.9s1.8,3.9,3.9,3.9h38.2l-19.8,19.8c-0.7,0.7-1.1,1.7-1.1,2.8c0,1,0.4,2,1.1,2.8c0.7,0.7,1.7,1.1,2.8,1.1
				c1,0,2-0.4,2.8-1.1l26.5-26.5c0.4-0.4,0.7-0.8,0.9-1.3c0.2-0.5,0.3-1,0.3-1.5c0-0.5-0.1-1-0.3-1.5
				C101,108.2,100.7,107.8,100.4,107.4z"/>
			<path class="st2" d="M71.1,79.8c1,0,2,0.4,2.8,1.1l26.5,26.5c0.4,0.4,0.6,0.8,0.8,1.3c0.2,0.5,0.3,1,0.3,1.5c0,0.5-0.1,1-0.3,1.5
				c-0.2,0.5-0.5,0.9-0.9,1.3l-26.5,26.5c-0.7,0.7-1.7,1.1-2.8,1.1c-1,0-2-0.4-2.8-1.1c-0.7-0.7-1.1-1.7-1.1-2.8c0-1,0.4-2,1.1-2.8
				l19.8-19.8H50c-2.2,0-3.9-1.8-3.9-3.9s1.8-3.9,3.9-3.9h38.2L68.3,86.4c-0.7-0.7-1.1-1.7-1.1-2.8c0-1,0.4-2,1.1-2.8
				C69.1,80.2,70.1,79.8,71.1,79.8 M71.1,76.2c-2,0-3.9,0.8-5.3,2.1c-1.4,1.4-2.2,3.3-2.2,5.3c0,2,0.8,3.9,2.2,5.3l13.7,13.7H50
				c-4.1,0-7.5,3.4-7.5,7.5s3.4,7.5,7.5,7.5h29.5l-13.7,13.7c-1.4,1.4-2.2,3.3-2.2,5.3c0,2,0.8,3.9,2.2,5.3c1.4,1.4,3.3,2.2,5.3,2.2
				c2,0,3.9-0.8,5.3-2.2l26.5-26.5c0.7-0.7,1.2-1.5,1.6-2.4c0.4-0.9,0.6-1.9,0.6-2.9c0-1-0.2-2-0.6-2.9c-0.4-0.9-0.9-1.7-1.6-2.4
				L76.4,78.4C75.1,77,73.1,76.2,71.1,76.2L71.1,76.2z"/>
		</g>
		<g>
			<path class="st1" d="M167.6,108.7c-0.2-0.5-0.5-0.9-0.8-1.3l-26.5-26.5c-1.5-1.5-4.1-1.5-5.5,0c-0.7,0.7-1.1,1.7-1.1,2.8
				c0,1,0.4,2,1.1,2.8l19.8,19.8h-38.2c-2.2,0-3.9,1.8-3.9,3.9s1.8,3.9,3.9,3.9h38.2l-19.8,19.8c-0.7,0.7-1.1,1.7-1.1,2.8
				c0,1,0.4,2,1.1,2.8c0.7,0.7,1.7,1.1,2.8,1.1c1,0,2-0.4,2.8-1.1l26.5-26.5c0.4-0.4,0.7-0.8,0.9-1.3c0.2-0.5,0.3-1,0.3-1.5
				S167.8,109.1,167.6,108.7z"/>
			<path class="st2" d="M137.5,79.8c1,0,2,0.4,2.8,1.1l26.5,26.5c0.4,0.4,0.6,0.8,0.8,1.3c0.2,0.5,0.3,1,0.3,1.5s-0.1,1-0.3,1.5
				c-0.2,0.5-0.5,0.9-0.9,1.3l-26.5,26.5c-0.7,0.7-1.7,1.1-2.8,1.1c-1,0-2-0.4-2.8-1.1c-0.7-0.7-1.1-1.7-1.1-2.8c0-1,0.4-2,1.1-2.8
				l19.8-19.8h-38.2c-2.2,0-3.9-1.8-3.9-3.9s1.8-3.9,3.9-3.9h38.2l-19.8-19.8c-0.7-0.7-1.1-1.7-1.1-2.8c0-1,0.4-2,1.1-2.8
				C135.4,80.2,136.5,79.8,137.5,79.8 M137.5,76.2c-2,0-3.9,0.8-5.3,2.1c-1.4,1.4-2.2,3.3-2.2,5.3c0,2,0.8,3.9,2.2,5.3l13.7,13.7
				h-29.5c-4.1,0-7.5,3.4-7.5,7.5s3.4,7.5,7.5,7.5h29.5l-13.7,13.7c-1.4,1.4-2.2,3.3-2.2,5.3c0,2,0.8,3.9,2.2,5.3
				c1.4,1.4,3.3,2.2,5.3,2.2c2,0,3.9-0.8,5.3-2.2l26.5-26.5c0.7-0.7,1.2-1.5,1.6-2.4c0.4-0.9,0.6-1.9,0.6-2.9s-0.2-2-0.6-2.9
				c-0.4-0.9-0.9-1.7-1.6-2.4l-26.5-26.5C141.4,77,139.5,76.2,137.5,76.2L137.5,76.2z"/>
		</g>
	</g>
</g>
</svg>
