<?xml version="1.0" encoding="utf-8"?>
<!-- Generator: Adobe Illustrator 24.0.1, SVG Export Plug-In . SVG Version: 6.00 Build 0)  -->
<svg version="1.1" id="Layer_1" xmlns="http://www.w3.org/2000/svg" xmlns:xlink="http://www.w3.org/1999/xlink" x="0px" y="0px"
	 viewBox="0 0 216 216" style="enable-background:new 0 0 216 216;" xml:space="preserve">
<style type="text/css">
	.st0{fill:#C1DEF6;}
	.st1{fill:#FFFFFF;}
	.st2{fill:#00A3E2;}
</style>
<g>
	<path class="st0" d="M159.2,113.2c0-29.2-23.6-52.8-52.8-52.8s-52.8,23.6-52.8,52.8S77.3,166,106.4,166S159.2,142.4,159.2,113.2"/>
	<path class="st1" d="M147.3,71.6c-21.9,0-39.8,17.8-39.8,39.8s17.8,39.8,39.8,39.8s39.8-17.8,39.8-39.8S169.3,71.6,147.3,71.6z
		 M149.7,111.4c0,1.3-1.1,2.4-2.4,2.4s-2.4-1.1-2.4-2.4V86.1c0-1.3,1.1-2.4,2.4-2.4s2.4,1.1,2.4,2.4V111.4z"/>
	<path class="st2" d="M181.5,82.9l-1.1-1.3l6.5-6.5c0.9-0.9,0.9-2.4,0-3.4c-0.9-0.9-2.4-0.9-3.4,0l-6.5,6.5l-1.3-1.1
		c-7-5.8-15.4-9.3-24.4-10.1l-1.7-0.2V54.7h6c1.3,0,2.4-1.1,2.4-2.4s-1.1-2.4-2.4-2.4h-16.9c-1.3,0-2.4,1.1-2.4,2.4s1.1,2.4,2.4,2.4
		h6v12.1l-1.7,0.2c-9,0.8-17.5,4.3-24.4,10.1l-1.3,1.1l-6.5-6.5c-0.9-0.9-2.5-0.9-3.4,0c-0.5,0.5-0.7,1.1-0.7,1.7s0.2,1.2,0.7,1.7
		l6.5,6.5l-1.1,1.3c-6.7,8-10.3,18.1-10.3,28.5c0,24.6,20,44.5,44.5,44.5s44.5-20,44.5-44.5C191.9,101,188.2,90.9,181.5,82.9z
		 M147.3,151.1c-21.9,0-39.8-17.8-39.8-39.8s17.8-39.8,39.8-39.8s39.8,17.8,39.8,39.8S169.3,151.1,147.3,151.1z"/>
	<path class="st2" d="M147.3,83.7c-1.3,0-2.4,1.1-2.4,2.4v25.3c0,1.3,1.1,2.4,2.4,2.4s2.4-1.1,2.4-2.4V86.1
		C149.7,84.8,148.7,83.7,147.3,83.7z"/>
	<path class="st2" d="M94.3,76.5H54.6c-1.2,0-2.2,1-2.2,2.2c0,1.2,1,2.2,2.2,2.2h39.8c1.2,0,2.2-1,2.2-2.2
		C96.5,77.5,95.5,76.5,94.3,76.5z"/>
	<path class="st2" d="M82.4,96.5H42.6c-1.2,0-2.2,1-2.2,2.2c0,1.2,1,2.2,2.2,2.2h39.8c1.2,0,2.2-1,2.2-2.2
		C84.5,97.5,83.6,96.5,82.4,96.5z"/>
	<path class="st2" d="M66.1,116.6H26.3c-1.2,0-2.2,1-2.2,2.2c0,1.2,1,2.2,2.2,2.2h39.8c1.2,0,2.2-1,2.2-2.2
		C68.2,117.6,67.3,116.6,66.1,116.6z"/>
</g>
</svg>
