<?xml version="1.0" encoding="utf-8"?>
<!-- Generator: Adobe Illustrator 24.0.1, SVG Export Plug-In . SVG Version: 6.00 Build 0)  -->
<svg version="1.1" id="Layer_1" xmlns="http://www.w3.org/2000/svg" xmlns:xlink="http://www.w3.org/1999/xlink" x="0px" y="0px"
	 viewBox="0 0 216 216" style="enable-background:new 0 0 216 216;" xml:space="preserve">
<style type="text/css">
	.st0{fill:#C1DEF6;}
	.st1{fill:#FFFFFF;}
	.st2{fill:#00A3E2;}
</style>
<g>
	<path class="st0" d="M155.6,116.2c0-29.2-23.6-52.8-52.8-52.8C73.6,63.4,50,87,50,116.2S73.6,169,102.8,169
		C132,169,155.6,145.4,155.6,116.2"/>
	<g>
		<circle class="st0" cx="91.5" cy="71" r="3.1"/>
		<circle class="st0" cx="91.5" cy="96.4" r="3.1"/>
		<path class="st1" d="M149.3,50.6H89.4c-7.2,0-13.1,5.9-13.1,13.1v69.2c0,7.2,5.9,13.1,13.1,13.1h59.9c7.2,0,13.1-5.9,13.1-13.1
			V63.7C162.4,56.5,156.5,50.6,149.3,50.6z M91.5,128.4c-3.7,0-6.7-3-6.7-6.7c0-3.7,3-6.7,6.7-6.7s6.7,3,6.7,6.7
			C98.2,125.4,95.2,128.4,91.5,128.4z M91.5,103.1c-3.7,0-6.7-3-6.7-6.7s3-6.7,6.7-6.7s6.7,3,6.7,6.7S95.2,103.1,91.5,103.1z
			 M91.5,77.7c-3.7,0-6.7-3-6.7-6.7s3-6.7,6.7-6.7s6.7,3,6.7,6.7S95.2,77.7,91.5,77.7z M144.2,123.5h-38.6c-1,0-1.8-0.8-1.8-1.8
			s0.8-1.8,1.8-1.8h38.6c1,0,1.8,0.8,1.8,1.8S145.2,123.5,144.2,123.5z M144.2,98.2h-38.6c-1,0-1.8-0.8-1.8-1.8s0.8-1.8,1.8-1.8
			h38.6c1,0,1.8,0.8,1.8,1.8S145.2,98.2,144.2,98.2z M144.2,72.8h-38.6c-1,0-1.8-0.8-1.8-1.8s0.8-1.8,1.8-1.8h38.6
			c1,0,1.8,0.8,1.8,1.8S145.2,72.8,144.2,72.8z"/>
		<path class="st0" d="M91.5,118.7c-1.7,0-3.1,1.4-3.1,3.1s1.4,3.1,3.1,3.1s3.1-1.4,3.1-3.1S93.2,118.7,91.5,118.7z"/>
		<path class="st2" d="M149.3,47H89.4c-9.2,0-16.7,7.5-16.7,16.7v69.2c0,9.2,7.5,16.7,16.7,16.7h59.9c9.2,0,16.7-7.5,16.7-16.7V63.7
			C166,54.5,158.5,47,149.3,47z M162.4,132.9c0,7.2-5.9,13.1-13.1,13.1H89.4c-7.2,0-13.1-5.9-13.1-13.1V63.7
			c0-7.2,5.9-13.1,13.1-13.1h59.9c7.2,0,13.1,5.9,13.1,13.1V132.9z"/>
		<path class="st2" d="M91.5,64.4c-3.7,0-6.7,3-6.7,6.7s3,6.7,6.7,6.7s6.7-3,6.7-6.7S95.2,64.4,91.5,64.4z M91.5,74.1
			c-1.7,0-3.1-1.4-3.1-3.1s1.4-3.1,3.1-3.1s3.1,1.4,3.1,3.1S93.2,74.1,91.5,74.1z"/>
		<path class="st2" d="M144.2,69.2h-38.6c-1,0-1.8,0.8-1.8,1.8s0.8,1.8,1.8,1.8h38.6c1,0,1.8-0.8,1.8-1.8S145.2,69.2,144.2,69.2z"/>
		<path class="st2" d="M91.5,89.7c-3.7,0-6.7,3-6.7,6.7s3,6.7,6.7,6.7s6.7-3,6.7-6.7S95.2,89.7,91.5,89.7z M91.5,99.5
			c-1.7,0-3.1-1.4-3.1-3.1s1.4-3.1,3.1-3.1s3.1,1.4,3.1,3.1S93.2,99.5,91.5,99.5z"/>
		<path class="st2" d="M144.2,94.6h-38.6c-1,0-1.8,0.8-1.8,1.8s0.8,1.8,1.8,1.8h38.6c1,0,1.8-0.8,1.8-1.8S145.2,94.6,144.2,94.6z"/>
		<path class="st2" d="M91.5,115.1c-3.7,0-6.7,3-6.7,6.7c0,3.7,3,6.7,6.7,6.7s6.7-3,6.7-6.7C98.2,118.1,95.2,115.1,91.5,115.1z
			 M91.5,124.8c-1.7,0-3.1-1.4-3.1-3.1s1.4-3.1,3.1-3.1s3.1,1.4,3.1,3.1S93.2,124.8,91.5,124.8z"/>
		<path class="st2" d="M144.2,119.9h-38.6c-1,0-1.8,0.8-1.8,1.8s0.8,1.8,1.8,1.8h38.6c1,0,1.8-0.8,1.8-1.8S145.2,119.9,144.2,119.9z
			"/>
	</g>
</g>
</svg>
