<?xml version="1.0" encoding="utf-8"?>
<!-- Generator: Adobe Illustrator 24.0.1, SVG Export Plug-In . SVG Version: 6.00 Build 0)  -->
<svg version="1.1" id="Layer_1" xmlns="http://www.w3.org/2000/svg" xmlns:xlink="http://www.w3.org/1999/xlink" x="0px" y="0px"
	 viewBox="0 0 216 216" style="enable-background:new 0 0 216 216;" xml:space="preserve">
<style type="text/css">
	.st0{fill:#C1DEF6;}
	.st1{fill:#FFFFFF;stroke:#00A3E2;stroke-width:0.25;stroke-miterlimit:10;}
	.st2{fill:#00A3E2;}
	.st3{fill:#FFFFFF;}
</style>
<g>
	<path class="st0" d="M160.8,115.1c0-29.2-23.6-52.8-52.8-52.8s-52.8,23.6-52.8,52.8s23.6,52.8,52.8,52.8S160.8,144.2,160.8,115.1"
		/>
	<polygon class="st1" points="90.7,133.3 90.7,133.3 90.7,133.3 	"/>
	<g>
		<path class="st2" d="M155,90.5c-0.5-0.6-1.2-1.3-2-1.9c-1.1-0.9-2.2-1.8-3.2-2.5c-0.5-0.4-1.1-0.8-1.6-1.2
			c-1.7-1.3-2.3-2.7-1.9-4.4c0.3-1.4,0.7-2.8,1.2-4.8c0.1-0.3,0.2-0.6,0.2-0.9l0-0.1c0.4-1.5,0.8-3.1,0.8-5c0-2.9-1.4-4.8-4.4-5.7
			c-1-0.3-2-0.5-3.1-0.6c-1.4-0.1-2.9-0.2-4.2-0.2l-1,0c-0.5,0-0.9,0-1.4-0.1c-2.1-0.1-3.5-1-4.2-2.8c-0.2-0.4-0.3-0.8-0.5-1.2
			l0-0.1c-0.3-0.7-0.6-1.6-0.9-2.4c-0.7-2.1-1.4-3.8-2.4-5.4c-1.2-1.9-2.8-2.9-4.8-3c-1.3-0.1-2.5,0.2-3.7,0.9
			c-1.1,0.6-2.2,1.3-3.1,1.8l-0.7,0.4c-0.5,0.3-1,0.6-1.5,1l-0.2,0.1c-0.8,0.5-1.7,1.1-2.5,1.6c-1.3,0.8-2.6,0.8-4,0
			c-0.8-0.4-1.5-0.9-2.3-1.4c-0.6-0.4-1.2-0.8-1.9-1.1c-0.2-0.1-0.4-0.2-0.6-0.4l-0.4-0.2c-1.1-0.7-2.3-1.4-3.5-2
			c-0.9-0.4-2.1-0.6-3.2-0.6c-2.1,0.1-3.7,1.2-4.8,3.2c-0.7,1.4-1.3,2.9-1.9,4.3l-0.3,0.7c-0.3,0.6-0.5,1.2-0.7,1.9l0,0.1
			c-0.2,0.7-0.5,1.4-0.8,2c-0.7,1.6-1.8,2.4-3.4,2.6c-1.7,0.2-3.5,0.2-5.3,0.3l-0.1,0c-2,0.1-4,0.2-5.9,1c-1.8,0.8-2.9,2.2-3.3,4.1
			c-0.4,1.8,0,3.5,0.3,5c0.2,0.7,0.4,1.4,0.5,2.1l0.1,0.4c0.4,1.4,0.8,2.9,1.1,4.4c0.3,1.5,0.2,2.5-0.6,3.4
			c-0.3,0.4-0.7,0.8-1.1,1.1c-0.3,0.3-0.7,0.6-1.1,0.9l-0.1,0.1c-0.4,0.3-0.8,0.6-1.1,0.9c-0.4,0.3-0.7,0.6-1.1,0.9
			c-1.2,1-2.4,2-3.5,3.1c-1.6,1.5-2.2,3.5-1.8,5.6c0.2,1.2,0.8,2.3,1.7,3.2c1.1,1.1,2.1,2,3,2.8c0.7,0.6,1.4,1.2,2.1,1.7L66,104
			c0.6,0.5,1.2,1,1.8,1.5c1.4,1.2,1.9,2.4,1.6,3.9c-0.3,1.5-0.7,3.1-1.1,4.9c-0.1,0.3-0.1,0.5-0.2,0.8c-0.4,1.5-0.8,3.1-0.9,4.8
			c-0.2,3.1,1.3,5.2,4.1,6.2c1.6,0.5,3.2,0.7,4.7,0.7c0.5,0,1,0,1.6,0.1c1.5,0.1,3,0.1,4.5,0.3c1.6,0.2,2.7,0.9,3.3,2.3
			c0.1,0.3,0.2,0.6,0.4,0.9c0.3,0.8,0.7,1.6,1,2.4l0.1,0.2c0.7,1.9,1.4,3.9,2.5,5.8c1.2,2,2.7,3,4.7,3.2c1.3,0.1,2.6-0.2,4-0.9
			c1-0.6,2-1.2,3-1.8l0.4-0.3c0.6-0.3,1.1-0.7,1.7-1.1l0.3-0.2c0.9-0.6,1.8-1.1,2.6-1.6c1.2-0.7,2.5-0.7,3.8-0.1l0.2,0.1
			c0.2,0.1,0.4,0.2,0.5,0.3c0.6,0.4,1.1,0.7,1.7,1.1l0.1,0.1c1.1,0.7,2.2,1.4,3.3,2.1c1.2,0.7,2.5,1.4,3.9,1.9
			c0.7,0.2,1.4,0.4,2,0.4c1.7,0,3.3-0.8,4.4-2.4c0.7-0.9,1.2-1.9,1.7-3.1c0.7-1.7,1.4-3.5,1.9-5l0.4-1.1c0.8-2.1,2.1-3.2,4-3.3
			c1.9-0.1,3.8-0.2,5.5-0.3l0.2,0c1.8-0.1,3.8-0.2,5.6-1.1c1.8-0.8,2.9-2.2,3.2-4.1c0.2-1.3,0.2-2.7-0.2-4.2c-0.5-2-1-4-1.5-5.6
			l-0.3-1c-0.6-2.3-0.1-4.1,1.6-5.4l0.1,0c0.7-0.5,1.5-1.1,2.2-1.8c0.4-0.3,0.7-0.6,1.1-0.9l0.1-0.1c1.1-0.9,2.3-1.9,3.3-2.9
			C157.7,96.8,157.7,93.3,155,90.5z M142.7,111.1c0.3,1.1,0.6,2.2,0.9,3.2c0.4,1.4,0.7,2.6,1,3.9c0.2,0.7,0.2,1.5,0.2,2.4
			c0,0.8-0.5,1.3-1.4,1.6c-1.2,0.4-2.4,0.5-3.6,0.5l-0.7,0c-0.6,0-1.2,0.1-1.8,0.1l-0.4,0c-1.1,0.1-2.3,0.1-3.5,0.2
			c-2.2,0.2-4,1.1-5.2,2.6c-0.4,0.5-0.8,1.1-1.1,1.7c-0.5,1.1-1,2.3-1.4,3.4l-0.1,0.2c-0.2,0.6-0.4,1.1-0.7,1.7l-0.1,0.2
			c-0.4,1-0.9,2.1-1.4,3.1c-0.4,0.8-0.9,1.3-1.5,1.7c-0.3,0.2-0.6,0.2-1,0.1c-1.1-0.2-2-0.8-2.8-1.3l-0.1-0.1
			c-1.5-1-3.4-2.2-5.3-3.5c-0.5-0.3-0.9-0.5-1.4-0.7l-0.1-0.1c-2.4-1.1-4.7-1.1-6.9,0.1c-1.1,0.6-2.1,1.3-3.1,1.9l-0.1,0.1
			c-0.7,0.4-1.4,0.9-2.1,1.3c-1.1,0.7-2.5,1.4-3.8,2c-1.3,0.6-1.9,0.3-2.6-1c-0.6-1.1-1.1-2.3-1.6-3.5l-0.1-0.3
			c-0.1-0.3-0.3-0.7-0.4-1c-0.2-0.6-0.5-1.2-0.7-1.8c-0.3-0.7-0.5-1.4-0.8-2.1c-1.3-3-3.7-4.7-7.1-4.9c-1-0.1-1.9-0.1-2.9-0.2
			l-0.4,0c-1.1-0.1-2.2-0.1-3.3-0.2c-0.9-0.1-1.8-0.2-2.6-0.4c-1.4-0.4-1.8-1.1-1.7-3l1.1-4.2c0.1-0.4,0.2-0.8,0.3-1.2l0.1-0.3
			c0.3-1,0.6-2.2,0.8-3.3c0.6-3.1-0.3-5.7-2.8-7.7c-0.6-0.5-1.3-1-1.9-1.5l-0.5-0.4c-0.7-0.5-1.4-1.1-2-1.6c-1-0.9-1.8-1.6-2.5-2.4
			c-1-1-1-2.1-0.1-3.1c0.9-1,1.9-1.9,3-2.8l0.1-0.1c0.2-0.2,0.4-0.3,0.6-0.5c0.7-0.6,1.5-1.2,2.2-1.8l0.2-0.2
			c0.4-0.3,0.7-0.6,1.1-0.9c2.5-2.1,3.4-4.9,2.7-8.2c-0.3-1.2-0.6-2.4-0.9-3.5l0-0.1c-0.3-1-0.6-2.1-0.8-3.2
			c-0.2-0.9-0.3-1.9-0.4-2.9c0-0.8,0.4-1.4,1.1-1.6c1.1-0.3,2.3-0.5,3.4-0.6c1.2-0.1,2.3-0.2,3.5-0.2l0.1,0c0.9,0,1.8-0.1,2.7-0.1
			c3.4-0.2,5.8-1.9,7.1-4.8c0.5-1.3,1-2.6,1.5-3.8l0.1-0.2c0.2-0.6,0.5-1.3,0.7-1.9c0.5-1.3,1-2.4,1.8-3.4c0.7-0.8,1.3-1,2-0.7
			c0.7,0.3,1.6,0.6,2.4,1.1c1,0.6,1.9,1.2,3,1.9c0.7,0.5,1.4,1,2.2,1.4c0.7,0.4,1.5,0.8,2,1.1c2.3,1.1,4.5,1,6.6,0
			c1.1-0.6,2.3-1.3,3.3-1.9l0.9-0.6c0.4-0.2,0.8-0.5,1.2-0.8l0.2-0.1c0.8-0.5,1.4-0.9,2.1-1.3c0.5-0.3,1.2-0.6,2-0.8
			c0.9-0.3,1.5-0.1,1.9,0.7c0.6,1,1.2,2.1,1.7,3.5c0.4,0.9,0.7,1.8,1.1,2.8l0.1,0.2c0.3,0.8,0.6,1.7,1,2.5c1.3,3.1,3.7,4.8,7.1,5
			c0.9,0.1,1.9,0.1,2.8,0.2l0.5,0c1,0,2,0.1,3,0.2c1.1,0.1,2,0.2,2.9,0.4c1.3,0.3,1.8,1.1,1.6,2.4c-0.2,1.1-0.4,2.2-0.7,3.3
			l-0.2,0.9c-0.2,0.7-0.3,1.4-0.5,2.1c-0.3,1.2-0.6,2.5-0.9,3.8c-0.3,1.8,0,3.5,1,5c0.3,0.5,0.7,0.9,1.1,1.4
			c0.8,0.8,1.7,1.5,2.6,2.3c0.6,0.5,1.2,1,1.8,1.5l0.3,0.3c1.1,0.9,2.1,1.9,3.1,2.9c0.8,0.9,0.9,1.9,0.1,2.8c-1,1.1-2.1,2-3.2,3
			l-0.4,0.3c-0.7,0.6-1.4,1.1-2,1.7c-0.6,0.4-1.1,0.9-1.7,1.3C142.7,104.8,141.8,107.7,142.7,111.1z"/>
		<path class="st3" d="M146.9,101.3c0.7-0.5,1.4-1.1,2-1.7l0.4-0.3c1.1-0.9,2.2-1.9,3.2-3c0.8-0.9,0.8-1.9-0.1-2.8c-1-1-2-2-3.1-2.9
			l-0.3-0.3c-0.6-0.5-1.2-1-1.8-1.5c-0.9-0.7-1.8-1.5-2.6-2.3c-0.5-0.4-0.8-0.9-1.1-1.4c-1-1.5-1.3-3.1-1-5c0.2-1.3,0.6-2.6,0.9-3.8
			c0.2-0.7,0.4-1.4,0.5-2.1l0.2-0.9c0.3-1.1,0.5-2.2,0.7-3.3c0.2-1.3-0.3-2.1-1.6-2.4c-0.9-0.2-1.8-0.4-2.9-0.4c-1-0.1-2-0.1-3-0.2
			l-0.5,0c-0.9,0-1.9-0.1-2.8-0.2c-3.5-0.2-5.9-1.9-7.1-5c-0.3-0.8-0.7-1.7-1-2.5l-0.1-0.2c-0.4-1-0.7-1.9-1.1-2.8
			c-0.6-1.3-1.1-2.5-1.7-3.5c-0.5-0.8-1-1-1.9-0.7c-0.8,0.2-1.5,0.5-2,0.8c-0.7,0.4-1.3,0.8-2.1,1.3l-0.2,0.1
			c-0.4,0.3-0.8,0.5-1.2,0.8l-0.9,0.6c-1,0.6-2.1,1.3-3.3,1.9c-2.1,1.1-4.4,1.1-6.6,0c-0.5-0.2-1.3-0.6-2-1.1
			c-0.7-0.5-1.4-0.9-2.2-1.4c-1.1-0.7-2-1.3-3-1.9c-0.8-0.5-1.6-0.8-2.4-1.1c-0.8-0.3-1.4-0.1-2,0.7c-0.8,0.9-1.3,2-1.8,3.4
			c-0.2,0.6-0.5,1.3-0.7,1.9l-0.1,0.2c-0.4,1.2-0.9,2.5-1.5,3.8c-1.3,3-3.6,4.6-7.1,4.8c-0.9,0.1-1.8,0.1-2.7,0.1l-0.1,0
			c-1.1,0.1-2.3,0.1-3.5,0.2c-1.1,0.1-2.3,0.3-3.4,0.6c-0.7,0.2-1.1,0.8-1.1,1.6c0,1.1,0.2,2.1,0.4,2.9c0.3,1.1,0.5,2.1,0.8,3.2
			l0,0.1c0.3,1.1,0.6,2.3,0.9,3.5c0.8,3.3-0.1,6.1-2.7,8.2c-0.4,0.3-0.7,0.6-1.1,0.9l-0.2,0.2c-0.7,0.6-1.5,1.2-2.2,1.8
			c-0.2,0.2-0.4,0.3-0.6,0.5l-0.1,0.1c-1,0.9-2.1,1.8-3,2.8c-0.9,1-0.8,2,0.1,3.1c0.7,0.7,1.5,1.5,2.5,2.4c0.7,0.6,1.4,1.1,2,1.6
			l0.5,0.4c0.6,0.5,1.3,1,1.9,1.5c2.5,2.1,3.4,4.7,2.8,7.7c-0.2,1.1-0.5,2.3-0.8,3.3l-0.1,0.3c-0.1,0.4-0.2,0.8-0.3,1.2l-1.1,4.2
			c0,1.9,0.4,2.6,1.7,3c0.8,0.2,1.6,0.3,2.6,0.4c1.1,0.1,2.2,0.1,3.3,0.2l0.4,0c1,0,1.9,0.1,2.9,0.2c3.5,0.2,5.8,1.9,7.1,4.9
			c0.3,0.7,0.6,1.4,0.8,2.1c0.2,0.6,0.5,1.2,0.7,1.8c0.1,0.3,0.3,0.7,0.4,1l0.1,0.3c0.5,1.2,1,2.4,1.6,3.5c0.7,1.3,1.3,1.6,2.6,1
			c1.3-0.6,2.6-1.3,3.8-2c0.7-0.4,1.4-0.8,2.1-1.3l0.1-0.1c0.9-0.6,2-1.3,3.1-1.9c2.2-1.2,4.5-1.2,6.9-0.1l0.1,0.1
			c0.5,0.2,0.9,0.4,1.4,0.7c1.9,1.2,3.8,2.5,5.3,3.5l0.1,0.1c0.8,0.5,1.7,1.1,2.8,1.3c0.4,0.1,0.7,0,1-0.1c0.6-0.3,1.1-0.9,1.5-1.7
			c0.5-1,0.9-2.1,1.4-3.1l0.1-0.2c0.2-0.6,0.4-1.1,0.7-1.7l0.1-0.2c0.4-1.1,0.9-2.3,1.4-3.4c0.3-0.6,0.7-1.2,1.1-1.7
			c1.2-1.5,3-2.4,5.2-2.6c1.2-0.1,2.3-0.2,3.5-0.2l0.4,0c0.6,0,1.2-0.1,1.8-0.1l0.7,0c1.2-0.1,2.5-0.1,3.6-0.5
			c0.9-0.3,1.3-0.8,1.4-1.6c0-0.9,0-1.7-0.2-2.4c-0.3-1.2-0.6-2.5-1-3.9c-0.3-1.1-0.6-2.2-0.9-3.2c-0.9-3.4,0-6.3,2.6-8.4
			C145.8,102.2,146.4,101.8,146.9,101.3z M108,124.6L108,124.6c-4.9,0-9.6-1.2-13.9-3.5c-2.5-1.4-4.9-3.1-7-5.2
			c-5.6-5.6-8.7-13-8.7-20.8c0-16.2,13.1-29.5,29.3-29.6l0.2,0c7.9,0,15.3,3.1,20.9,8.6c5.6,5.6,8.7,13,8.7,20.9
			C137.5,111.3,124.2,124.6,108,124.6z"/>
		<path class="st2" d="M107.9,65.5l-0.2,0c-16.2,0.1-29.3,13.4-29.3,29.6c0,7.8,3.1,15.2,8.7,20.8c2.1,2.1,4.4,3.8,7,5.2
			c4.2,2.3,9,3.5,13.8,3.5h0c16.3,0,29.6-13.3,29.6-29.6c0-7.9-3.1-15.3-8.7-20.9C123.3,68.5,115.8,65.5,107.9,65.5z M131.6,105
			c-4,9.5-13.2,15.6-23.4,15.7h-0.1c-0.8,0-1.7,0-2.6-0.1c-6-0.6-11.4-3.2-15.7-7.4c-4.9-4.8-7.5-11.3-7.5-18.1
			c0-6.8,2.7-13.3,7.5-18.1c4.8-4.8,11.2-7.5,18-7.5c0.9,0,1.7,0,2.6,0.1c5.9,0.6,11.4,3.2,15.6,7.4c4.8,4.8,7.5,11.3,7.5,18.1
			C133.6,98.5,132.9,101.8,131.6,105z"/>
		<path class="st0" d="M110.5,69.5c-0.8-0.1-1.7-0.1-2.6-0.1c-6.8,0-13.2,2.7-18,7.5c-4.8,4.8-7.5,11.3-7.5,18.1
			c0,6.8,2.6,13.3,7.5,18.1c4.3,4.3,9.7,6.8,15.7,7.4c0.9,0.1,1.7,0.1,2.6,0.1h0.1c10.2,0,19.4-6.2,23.4-15.7c1.3-3.1,2-6.5,2-9.9
			c0-6.9-2.6-13.3-7.5-18.1C121.9,72.7,116.4,70.1,110.5,69.5z M123.6,86c-1.3,1.4-2.7,2.8-4,4.2L116,94c-3.9,4.1-7.9,8.3-11.8,12.4
			c-0.7,0.7-1.2,1.1-1.9,1.1c-0.7,0-1.3-0.4-1.9-1.2c-2.7-2.8-5.3-5.6-8-8.4c-0.7-0.7-0.8-1.6-0.4-2.4c0.4-0.8,1.3-1.2,2.2-1
			c0.4,0.1,0.9,0.4,1.2,0.8c1.6,1.7,3.2,3.3,4.8,5l2.2,2.3l0.5-0.6c0.8-0.9,1.6-1.7,2.4-2.5l10.9-11.5c1.5-1.6,3.1-3.2,4.6-4.8
			c0.2-0.2,0.5-0.4,0.7-0.5c0.8-0.4,1.6-0.2,2.2,0.5C124.5,84,124.5,85.1,123.6,86z"/>
		<path class="st2" d="M121.5,82.7c-0.3,0.1-0.5,0.3-0.7,0.5c-1.5,1.6-3.1,3.2-4.6,4.8l-10.9,11.5c-0.8,0.8-1.6,1.7-2.4,2.5
			l-0.5,0.6l-2.2-2.3c-1.6-1.7-3.2-3.4-4.8-5c-0.4-0.4-0.8-0.7-1.2-0.8c-0.9-0.2-1.7,0.2-2.2,1c-0.4,0.8-0.3,1.7,0.4,2.4
			c2.7,2.8,5.3,5.6,8,8.4c0.7,0.7,1.2,1.2,1.9,1.2c0.7,0,1.2-0.4,1.9-1.1c3.9-4.1,7.9-8.3,11.8-12.4l3.6-3.8c1.3-1.4,2.7-2.8,4-4.2
			c0.8-0.9,0.9-2,0.1-2.8C123.1,82.5,122.3,82.4,121.5,82.7z"/>
	</g>
</g>
</svg>
